<svg version="1" xmlns="http://www.w3.org/2000/svg" width="781.333" height="781.333" viewBox="0 0 586.000000 586.000000"><path d="M81.8 6.8L42 7l-7.4 4.5c-4 2.5-7.9 4.5-8.5 4.5-.6 0-1.1.3-1.1.7 0 .5-2 2.1-4.4 3.6C12 25.7 5.2 35.7 3.5 45.5c-.4 2.2-.9 4.9-1.1 6C.9 59.2.5 73.7.5 118.5c0 28 .3 54.4.7 58.5.4 4.1.8 7.8.8 8.2 0 .4 1.4 2.3 3.2 4.3 3.4 4 10.6 8 15.5 8.8 2.9.5 11.3-1.1 15.8-2.9 3-1.2 7.6-5.6 8.8-8.4 1.1-2.6 1.1-2.7 2.2-7.5.4-1.7.9-28.2 1.2-59 .2-30.8.6-56.5.8-57.2 1-3.1 8.1-6.2 15.5-6.9 8.9-.9 349.6-1.2 355.8-.3 2.3.3 4.2.2 4.2-.3s.4-.6 1-.3c.5.3 19.5.8 42.2 1 54.9.6 63.4 1.1 66 4.2 2.3 2.8 1.6 23.6-1.3 42.3-.6 3.6-1.2 7.4-1.4 8.5-.3 2-1.1 6.5-2 11.5-.5 2.7-.5 2.6-3.5 21.5-1.2 7.1-2.3 14.1-2.5 15.5-.3 1.3-.7 6.7-1 11.9-.4 5.2-.7 9.7-.8 10 0 .3.5 2.4 1.2 4.6 1.6 4.6 7.1 10 11.9 11.6 4.4 1.4 12 1.8 15.7.7 1.7-.5 3.5-1 4-1.1 3.9-.9 7.9-4.8 10.5-10.2 2.9-5.9 8.2-25.4 10.5-39 .3-1.7 1.2-6.2 2-10 .8-3.9 1.6-8.6 1.9-10.5.2-1.9.9-6.7 1.6-10.5.6-3.9 1.4-8.8 1.6-11 .3-2.2.7-5.1 1-6.5 1.9-11.7 2.6-40.9 1.1-48-2.5-11.7-7-20-15.8-28.9-2.7-2.8-5.2-5.1-5.5-5.1-.3 0-1.7-.9-3.2-1.9-3.6-2.6-13.3-5.8-20.2-6.6-3-.4-6.8-.9-8.5-1.1-1.6-.2-6.8-.7-11.5-1-8.3-.7-359-1.2-438.2-.6z"/><path d="M274.5 89.8c-4.6.8-10.9 4.1-19.9 10.4-.7.4-1.1 53.9-1.3 155-.2 179.7-.9 241.2-2.8 251.7-.4 1.9-1.4 4.6-2.3 6-2.4 4-10.1 11.1-12 11.2-.9 0-2.8.3-4.2.5-1.4.3-27.6.6-58.2.8l-55.8.3-5.9-5.8-6-5.9-.6-97.2c-.9-141.9-1.2-150.6-6.2-161.8-2.1-4.6-4.9-7.3-9.3-8.6-4.7-1.4-18-1-21.5.7-3.6 1.8-8.3 7.6-8.9 11.2-.3 1.5-.7 3.5-1 4.5-2.1 6.6-2.8 35.4-2.8 114.2 0 91 .8 138.5 2.7 149 1.2 7.1 8.4 19.7 15.3 26.8 13.4 13.8 27.6 20.8 44.7 21.9 25.7 1.8 106.9 0 128-2.8 13-1.7 22.4-7.4 36.7-22.1 10.5-10.8 15-21.1 16.2-36.4.3-3.2.5-5.9.6-5.9 2.9 0 3.5-360.7.7-397.2-.1-1.7-.6-3.5-1-3.9-.4-.4-.7-1.6-.7-2.7 0-7.1-15-15.7-24.5-13.9zM487.7 246c-9.6 1.7-13.8 9.4-15.3 28.5-.9 10-1.5 51.6-1.9 131-.5 80.9-.8 96.5-2 104.2-2 12.8-11.1 15.5-56.8 16.8-10 .3-27.2.8-38.2 1-25.3.7-38.2 1.2-42 1.9-1.6.3-4.5.8-6.4 1.1-14.2 2.4-22.3 18-16.1 31 3.7 7.6 18.9 21.5 16.4 15-.5-1.3.5-1.4 6.2-.9 11.3.9 95.2.2 113.9-1 13.8-.9 28.2-4.5 32.5-8.1.8-.7 2.6-1.6 3.9-2 3.8-1.2 16.5-10.1 20.7-14.7 4.8-5.2 7-8.6 10.6-15.9 6.1-12.8 6.3-15.6 6.3-142.4-.1-109.4-.4-121.2-3.8-134-.8-3.2-5-8.6-7.7-10-3.4-1.8-14.2-2.5-20.3-1.5z"/></svg>