<svg xmlns="http://www.w3.org/2000/svg" id="Storybooks_Canada_Logo" viewBox="0 0 752.5 642.8" version="1.1" width="100%" height="100%" enable-background="new 0 0 752.5 642.8"><defs id="defs44"><filter id="filter1795" x="-.231" width="1.462" y="-.223" height="1.445" color-interpolation-filters="sRGB"><feGaussianBlur stdDeviation="27.684" id="feGaussianBlur1797"/></filter></defs><style id="style3">.st0{fill:#337fbe}.st1{fill:#3bb54a}</style><g id="g5"><g id="Globe"><circle class="st0" cx="376.1" cy="305.3" r="222.4" id="circle8"/><g id="g10"><path class="st1" d="M175.8 212.1c3.3 0 5.1 3.7 7.9 5.5 2.7 1.7 6.2 1.4 8.9 3 1.3.8 2.3 2 3.8 2.4.8 2.5-3.3 4.6-2.5 7.1.4 1.3 1.9 1.9 2 3.2 0 .5-.3 1.1-.1 1.7.3 1.4 2.3 1.7 2.8 3 .3.8-.1 1.7.1 2.4.3.6.8 1 1.3 1.4 2.4 1.7 5 3 7.7 4.1.8.3 1.6.6 2.3 1.1 5.8 4.6 0 16.2-1 21.5-2.3 11.7 2.7 17.2 9.2 25.2 1.7 2 2.7 4.4 4.2 6.5 5.7 7.7 14.6 14.4 21.1 21.8.8.9 1.6 1.8 2.2 2.9.7 1.4.9 3.1 1.6 4.5 1.3 2.5 4 3.9 6.6 5.2 6 2.9 12.1 5.9 18.1 8.8 6.7 3.2 12.7 2 19.3 4.2 10 3.6 20.3 7.2 28.5 14.2 3.4 2.9 2.8 8.3 2.8 12.7 0 .9 0 1.9-.5 2.8-.4.5-.8.9-1.3 1.3-1.1.9-2.3 1.7-3.3 2.5-.3.1-.5.4-.8.5-1.1 1.1-1.4 3-.6 4.4-1.5.3-2 2-2.3 3.4-.4 2.3-.5 4.7-.6 7.1-.1 1.8 0 3.7 1.3 5 .6.5 1.4.9 1.8 1.7.4.6.4 1.4.5 2.2.4 2.7 2.2 5.2 4.6 6.6 1.5.9 3.2 1.3 4.6 2.3.8.6 1.5 1.4 2.3 2 2.3 2 5.7 3 7.2 5.7 3.9 6.5-5.2 17.7-5.4 24.7-.1 2.9.3 5.9-.3 8.8-1 5.1-3.9 9.6-5.2 14.6-1.2 4.4-4.4 10.4-4.8 14.9 3 1.7 5.6 4.2 7.2 7.2.5.9.9 1.9.9 3 0 .8-.4 1.5-.6 2.3-1.9 5.1-2.9 10.5-3 16 0 .6 0 1.3.3 1.9.3.5.6 1 1.1 1.4 3.7 3.4 8.5 5.7 13.6 6.5 1-3.7.4-7.5.8-11.3.4-4.8 2.2-9.4 5.1-13.3.1-.3.4-.5.6-.6.3-.1.6-.1 1-.1 1.9-.1 3.4-1.4 4.4-3 1-1.5 1.5-3.4 2.2-5.1 3.3-9 11.3-10.1 17-17.2 2-2.5 3.7-5.3 5.4-8.1 2.2-3.7 5.4-6.1 7.9-9.3 2.3-2.9 3.3-7.3 6.2-9.7 1.3-1.1 3.1-1.5 4.6-2.3 6.5-3.2 18.8-15.6 14.1-23.4-.6-.9-1.3-1.8-1.5-2.9-.3-1.5.5-3.1 1.4-4.4 2.6-3.7 18.5-21 8.9-25.6-1.7-.8-3.6-.7-5.4-1.2-5.1-1.4-7.8-6.7-12.5-8.7-5.4-2.4-12.1-.4-16.2-5.8-1-1.4-1.7-3-2.6-4.4-1-1.7-2.4-3.2-3.8-4.7-2-2.1-3.9-4.2-5.9-6.3-.5-.5-1-1-1.6-1.3-3.1-1.1-9.7 1.3-14.1.2-.3 1.4-1.9 1.9-3.3 2-2.5.4-5.7.5-7.4-1.4-1-1.1-1.3-2.7-2-3.9-2-3.7-7.2-5-9-8.9-1-.8-2.5 0-3.3 1s-.9 2.4-1.4 3.6c-1.3 3-4.6 4.7-6.2 7.5-2.2-1-5.1-2.7-5.7-5.1-.3-.8-.3-1.7-.6-2.3-.5-1-1.7-1.4-2.8-1.8-1.5-.6-3-1.4-4.4-2.2-2.4-1.4-4.8-3.4-5.3-6.2-.3-1.7.1-3.3.5-5 .3-1 .5-1.9.8-2.9.1-.5.3-1.1.1-1.7-.4-1.3-2.3-1.3-3.4-.5s-1.9 1.9-3.2 2.5c-1.1.5-2.4.4-3.6 1-1.3.6-1.9 2-3.2 2.7-2.7 1.2-8.4-1.3-11-2-2.1-.5-4.2-1.5-5.2-3.3-2.1-3.6-2-13.2 1.3-16 4.4-3.8 3.1-8.2 10.7-7.6 3.6.3 7.1.8 10.7 1.5 2.7.5 6.8-.1 9.1.7 1.4.4 2.3 1.9 2.7 3.3.4 1.4.6 2.9 1.4 4.2.4.6.9 1.1 1.1 1.8.5 1.1.5 2.4.5 3.6-.1 3.2-.1 6.6 2 8.9-.1-.8.6-1.4 1.4-1.8.8-.3 1.7-.5 2-1.1.4-.6.3-1.4.1-2-.8-4.4-1.4-9-1.8-13.5-.1-1.1-.3-2.3 0-3.3.1-.8.4-1.4.8-2 1.7-3.6 4.4-6.5 5.7-10.3 1-3 1.1-6.9 3.9-8.6-.4-1.3 1.1-2.8 2.4-3 1.3-.3 2.7 0 3.9-.4s2.3-1.3 3.3-2.2c3.3-2.8 7-5 10.7-7.1 1.3-.8 2.5-1.5 3.9-1.9 1.8-.5 3.9-.9 4.7-2.5.8-1.5 0-3.7 1.4-4.7.8-.6 2.4-.9 2.2-1.9-.1-.4-.4-.5-.6-.8-1.7-1.3-3.4-2.5-5.5-2.5-.9 0-1.7.3-2.5.3-2.3 0-4.1-2.2-5.3-4.1-.1-.3-.4-.5-.4-.8 0-.4.1-.6.4-1 1.4-2.3 2.9-4.7 4.3-7 .3-.5.6-1 1-1.3 1-.9 2.4-.8 3.7-.5 1.3.4 2.4 1 3.7 1.4 1.8.5 3.7.3 5.6.3.6 0 1.3 0 1.9.3 1.1.4 2 1.3 3 1.8s2.5.8 3.3-.3c.8-1 .3-2.8 1.4-3.4-1-3.7.3-8.3 2.8-11.1.4-.5.9-.9 1.1-1.5.1-.4.1-.9.1-1.4 0-2.2-.5-4.8-2.5-5.5-2.3-.8-5.6 1.3-8.1 1.3-3.1 0-7-1.6-10.1-2.2-.4-.1-.9-.2-1.2-.5-.3-.3-.5-.7-.6-1.1-.9-2.7-3.2-13.4-5.9-14.8-1.3-.6-6.6-.8-8.3-1-1.1-.1-2.4.5-2.5 1.6-.1.4 0 .8 0 1.3-.1.9-1 1.7-1.9 1.6-1.1-.1-1.8-1.1-2.4-1.9-3.2-4.8-6.3-9.7-9.6-14.4-.3-.4-.6-.8-1-1-.4-.1-.9-.1-1.3-.1-2.3 0-5.1.4-5.8 2.5-.3.9-.6 2.2-1.5 1.9-.4 6.4 3.7 13.6 4.4 20.1.1.8.1 1.7-.2 2.4-.3.6-1 1.1-1.5 1.6-2.4 2.3-4.5 12-7.3 12.9-.7.2-1.4 0-2.1-.2-1.8-.6-3.6-1.2-4.8-2.7-.9-1.1-1.4-2.6-2.2-3.8-1.4-2.2-3.9-3.4-6.2-4.7-3.6-2-12.1-7-13.5-11.1-1.2-3.6 2.2-6 3.3-9.6 1.2-4.4 1.5-6.7 6.4-8.4 7-2.3 14.7-6.2 22.1-7.1 2.2-.3 4.7-1 5.7-3 1.1-2.3-.3-5-2-6.7-2.9-2.9-6-5.9-8-9.6-.9-1.6-2.9-10.2-6.5-7.1-.4.3-.5.6-.8.9-1.9 2.5-5.2 3.8-8.3 3-1.3-.3-1.5-2.2-1.5-3.3v-12.2c0-1.8-.4-3.9-2.2-4.2-.5 0-.9.1-1.4.3-2.5.9-5 2.3-6.9 4.2-.6.6-1.3 1.4-2.2 1.7-.5.3-1.1.3-1.7.3-2.3.1-4.6.3-6.9.4-.4 0-.8 0-1.1-.1-.5-.3-.8-.8-1-1.4-2.2-4.8-4.7-9.4-7.7-13.7-.4-.6-1-1.3-1.8-1.1-2 .3-1.5 5-3.4 5.8-3 1.4-6.4 4.3-9.9 2.6-1.9-.9-3.4-2.4-5.1-3.5-3.9-2.5-5.4-1.1-7.8 2-.3.4-.6.9-.6 1.4 0 .5.4.9.6 1.3 2.4 2.9 4.8 5.7 7.5 8.5 3 3.2-4.7 6.1 2.2 7.4 1.6.3 2.6 2 3.2 3.5.6 1.6 1.1 3.3 2.4 4.3.3.3.7.5 1 .9 2.7 4.5-12.8 2.9-14.6 1.8-7.3-4.2-18.3-11.1-27.1-10.6-14.6 15-32 46.6-33 51.2" id="path12"/><path class="st1" d="M331.5 322.9h-5c.5 1.9 2.7 2.8 3.8 4.3.8.9 1 2.2 1.9 2.9 1.3 1.3 3.3 1.4 5.1 1.1 1.8-.4 3.6-1.1 5.3-1.3 1.1-.1 2.3.1 3.4 0 1-.1 2-.4 3-.6.9-.3 2-1 1.8-1.9-.1-.5-.6-.6-1-.9-1.4-.6-2.9-1.3-4.6-1.5-.8-.1-1.5 0-2.2-.3-1.7-.6-2.4-2.5-3.9-3.4-1.4-.8-3.2-.4-4.8.1-1.1.3-2.3.6-3 1.4" id="path14"/><path class="st1" d="M590.7 354.4c.5-3.8 1-8-1.3-11.1-.8-1-1.7-1.8-2.4-2.8-6.3-9.5-.7-20.6-15.1-25.4-6.5-2.2-13.6-1.6-20.5-1.2-2.1.1-4.3.2-6.2-.7-6.1-2.9-4.2-12.3-7.9-17.9-4-6-12.8-5.8-20-4.8-8.7 1.2-17.4 2.3-26.2 3.5-2.5.3-5 .7-7.2 1.7-5 2.4-7.6 7.7-9.9 12.7-8.5 18.5-17 40.2-8 58.4 2.5 5 7.9 9.9 13.1 7.8 3.2-1.3 4.9-4.8 7.7-6.8 4.9-3.7 12.2-2.3 17.5.9 5.3 3.1 9.8 7.7 15.4 10.4 4.1 1.9 9 3.1 11.1 7.1 1.1 2 1.1 4.4 1.2 6.7.2 9.2.3 18.8-3.9 27-2.2 4.3-5.5 9.4-2.9 13.4 1 1.5 2.7 2.5 4.1 3.6 6.5 5.4 6.3 15.3 5.5 23.8.4-4.6 15.3-16.7 18.5-21 6.5-8.4 12.3-17.2 17.5-26.4 9.2-16.5 17-34.7 20.7-53.3" id="path16"/><path class="st1" d="M596 335.2c-4.6-5.7-5.2-13.7-9.5-19.6-1-1.4-2.3-2.7-2.5-4.4-.4-1.7.3-3.4.8-5.1 1.7-5.2 1.9-11.4-1.8-15.5-4.4-5-12.8-4.6-17-9.7-.5-.6-1-1.4-1.7-1.8-1.8-1-3.8.1-5.7 1-3.8 1.8-8.3 2.3-12.3 1.3 1.1-2.2.9-5-.5-6.9-1.5-1.9-4.1-2.9-6.5-2.4-2.8.6-5.2 3.2-8.1 3.2-1.5 0-2.8-.8-4.3-1-2.9-.6-6 .1-8.8.9-2.3.6-4.6 1.3-6.5 2.5-1.9 1.4-3.4 3.6-3.2 5.8-2.4-.8-5.3.1-6.9 2.2-1.8.5-3.6 1-5.3 1.4-4.3 1.1-9.8 2-12.7-1.3-1.1-1.3-1.7-3-2.2-4.8-.9-3-1.8-6.1-2.7-9.3-.9-2.9-1.3-6.9 1.4-8.1 1-.5 2.3-.4 3.6-.5 2.9-.4 5.5-2.3 6.6-5 .6 0 1.3-.1 1.9-.1 1.1-5.1-3.8-10.5-1.4-15.1 2.2.6 4.3-.8 5.8-2.4 1.5-1.7 3-3.4 5.3-3.8 1.9-.3 3.8.5 5.6-.1 1.5-.5 2.4-2 3.8-2.7 2.3-1.1 5.1.1 7 1.9s3.4 3.9 5.7 5.2c2.2 1.1 5 1.4 7.2.4.8-.3 1.4-.8 1.9-1.4.4-.6.5-1.5.5-2.3.3-3.6.4-7.6-2.3-10-.9-.9-2.2-1.4-3.2-2.3-1.3-1-2.3-2.3-3.3-3.6-.9-1.1-1.8-2.5-1.5-3.9.4-1.5 2.3-2.3 3.8-2.3s3.3.4 4.8 0c.3-.8.6-1.4.9-2.2 2.9.3 6.4.1 9.1-.6 2.5-.6 5.1-2 7.6-1.3 2.5.9 3.8 3.7 4.4 6.4.5 2.7.8 5.6 2.5 7.6.5.6 1.3 1.3 2.2 1.3 2.2 0 2.5-3 2.2-5.1 1.7 1 3.4-1 4.1-2.8 2.2-5.8 1.8-12.7-1-18.4-2.7-5.2-7.4-9.7-7.9-15.5-3.6 3.6-6.2 8-7.6 12.8-.8 2.8-1.4 6-3.7 7.7-1 .8-2.2 1.1-3.3 1.5-6.1 1.9-12.4 3.2-18.9 3.7-2.5.3-5.5.1-7.2-1.7-2.4-2.4-1.5-6.7.5-9.4s5-5 6.6-7.9c.6-1.1 1.1-2.4 2-3.4 1.9-2 5-2.2 7.4-3.6 2.9-1.8 4.2-5.3 4.7-8.6.6-3.3.8-6.9 2.4-9.9 1-1.9 2.9-3.7 5.1-3.4 1.9.3 3.7 1.1 5 2.5 34.9 43.2 57.5 101.1 47.3 170.2" id="path18"/><path class="st1" d="M492.5 212.3c-1.7.3-2.4 2.2-2.3 3.8.1 1.7.9 3.2.9 4.8 0 1.3-.4 2.5-.9 3.8-1.4 3.6-3.7 6.7-6.5 9.3-1.5 1.4-3.4 2.8-3.8 4.8v.8c.3.8 1.3 1 2.2 1 1.8.1 3.6.3 5.1-.4 2.4-1 3.9-3.6 6.5-4.4 1.1-.4 2.3-.5 3.4-.8 4.6-1.1 7.6-6.6 6.1-11.1-.9-2.8-3.3-5-4.1-7.9-.5-1.8-.5-3.8-2-5-.8-.5-2.2-1-2-1.9-.9-.3-1.9.4-2 1.3" id="path20"/><path class="st1" d="M458.3 177.2c-2.8 0-4.7 2.5-6.5 4.6-1.8 2-4.2 4.3-6.9 3.7 3.7 4.7 7.4 9.3 11.2 14 .5.5.9 1.1 1.7 1.4.5.3 1.1.3 1.8.3h3.9c1.5 0 3.2 0 4.6-.6 3.4-1.5 4.4-6 7.2-8.4 1.4-1.3 3.3-1.9 4.6-3.4 1.1-1.4 1.5-3.3 1.8-5.1.4-2.4.6-5.2-.8-7.2-2-3-6.5-2.8-10.2-2.4-2 .3-4.1.5-6.1.9-2.9.4-6 .9-8.1 2.7" id="path22"/><path class="st1" d="M378 140.1c3.3 14.6 7.3 27.5 13.2 41.3.9 2.3 1.4 4.7 2.2 7.1 3.4 10.7 14.5 18.5 25.7 18.2-.1-6 .5-11.9 1.8-17.8.3-1 .5-2.2 1.4-2.8 1.3-.9 3.2-.4 4.7-.9 3.2-1.3 2.7-6.7 5.8-8.1 1.3-.6 2.8-.3 4.3-.3 4.4 0 10-4.2 14.1-5.8.6-.2 1.1-.5 1.6-.8.6-.6 1-1.4 1.3-2.1 1.7-3.9 3.4-7.8 5.1-11.8.4-.9.8-1.9.7-2.8-.3-2.4-2.9-3.7-3.3-6.1-.7-4.2 2.1-8.9 2.1-13.3 0-3.4.7-9.9 5.5-9.5 1.3-4.1 2.5-8.1 3.8-12.2.8-2.3 1-5.3-1-6.4-1.1-.5-2.4-.1-3.6-.3-4.1-.4-6.7-5.5-10.8-5.1-3.2.3-5.1 3.8-8 4.7-2.7.9-5.8-.9-6.6-3.6s.8-7.5 2.7-9.5c-8.9-2.5-18.4-5.1-27.7-6.4-.4 2.3-1.8 7-3 8.9h-8.6c-2.3 3.7-5.7 6.7-9.8 8.6-2.5 1.1-5.5 1.8-8 .6-3-1.5-4.8-5.7-8.3-6-1.4-4.2-2.9-8.4-4.3-12.6-4.2-.5-8.8-.9-12.6.9-1.3.5-2.3 1.4-3.6 1.9-3.9 1.7-8.5.3-12.6-1-.6 5.6-1.3 11.2-1.8 16.8-.3 2.3-.6 4.7-2.4 6.1-2.7 2-7.2-.5-6.9-3.8-3.4-3.4-5.5-8.3-5.5-13.1-5.6-2.9-13-1.8-17.4 2.8 5.5 3.6 9.4 9.5 10.4 16-3.3 2.3-7.7-.1-11.3-2.3-4.6-2.7-9.5-4.7-14.7-5.8-3.3-.8-7.5-.8-9.1 2.2-1 1.9-.4 4.3.4 6.4-3.2 3.4-8.8 4.3-13 2-1.3-.8-2.5-1.7-4.1-1.9-2.2-.3-4.2 1.4-6.1 2.4-3.3 1.8-10.5 6.6-10.8 7.1-1 2.5 6.5 3.6 7.9 5.8 2.4-3.2 4.8-6.4 7.4-9.5 4.4.1 7.2 4.7 8.5 8.9 1.3 4.2 2 8.9 5.3 11.8 1.7-.1 3.2-.1 4.8-.3 2.2-.2 1.9-13.7 1.8-15 0 .1 8.2-5.3 9-5 .8.1 1.3.6 1.8 1.3 3.7 4.1 3.3 11.1-.9 14.6.6 1.9 3.3 2.4 5.2 1.8 3.4-1.1 6.5-1.9 10-2.8 3.9-1 6-8.3 10.8-4.8 1.1 4.7 5.3 9.8 2.3 13.5-.9 1-2.2 1.7-3.2 2.5-3.2 2.4-4.6 7.1-3.2 10.8 1.4 3.8 5.3 6.5 9.4 6.4 1.5 0 3-.4 4.4 0 1.1.4 2.2 1.3 3 2.2 4.4 4.3 9.3 10.5 6.5 16.1 3.3 2.7 5.5 6.6 9 9 3.6 2.4 9.5 2.3 10.9-1.8-3.6-2.8-6.4-6.6-8-10.8 3.8-.6 7.7-1.4 11.6-2 1-2.9 2-5.8 2.9-8.8-2.9-1.4-5.5-3.7-7-6.6.6 1.2-6.1.3-6.8.2-4-1.2-6.5-4.8-10.2-6.2-2.6-.9-7.6.6-9.4-1.5-.8-1-.7-2.4-.5-3.7.5-3.4 1-6.8 1.5-10.3.4-2.7.8-5.5 2.1-7.9 4.7-9.2 20.4-18.2 30.6-15.9.6 3.6.9 8-2.2 10-1.1.8-2.7 1-4.1 1.5-2.4.8-4.6 2.2-6.2 4.1-2 2.4-2.7 7.1.4 8.3-2 .3-2.8 3.2-1.4 4.8 1.3 1.5 3.8 1.7 5.7 1 1.9-.6 3.6-2 5.2-3.2 2.3-1.5 5.1-2.8 7.9-2.3 2.8.5 5.2 3 4.7 5.8" id="path24"/></g></g><g id="Book"><path class="st0" d="M695.1 483.2l-4.7 15.6c-42.4-14-172-42.9-298.3 28.8-5.6 3.2-10.8 7-16.1 11.1-5.2-3.9-10.5-7.9-16-11.1-126.9-71.9-255.8-42.2-297.9-29L57.3 483l-6.9 19.6 4.1 17.8s157-47.3 275.4 7.2c5.6 2.5.9 10 12.4 22.9 7.7 8.8 19.8 12.8 33.7 12.7 10.1-.1 20.1-.9 28.6-6.9 7.4-5.2 11.4-12.3 14-20.7.6-2 .9-7.2 3.3-8 144.2-55.1 274.4-6.4 274.4-6.4l5.6-18.2-6.8-19.8z" id="path38"/><path id="Middle_Book" d="M708.9 435.4c-186.3-11.3-273.4 46.2-332.7 83.7-48.9-31.9-112.4-82.1-279.8-84.5-17-.3-34.7.8-53.4 2.3l19 61.9s154.6-52.5 289.9 29.9c-.9 1-1.5 2.2-2 3.3-2.2 5.3 1.4 10.5 5.7 13.6 8 5.6 18.4 5.6 27.9 4.7 11.4-1.3 22.5-7.4 20.1-17.3-.5-1.9-1.3-3.2-2.9-4.3C536 446.5 690.2 499 690.2 499l18.7-61.7.4-1.5-.4-.4z" fill="#d2d3d4"/><path id="Top_Book" d="M664.5 409.8C478 399.7 376 507.9 376 507.9S275.8 399.6 89.3 409.6l-46.1 27.3s38.2-2.4 55.3-2c165.1 3.3 230.7 54 277.8 84.3 41.3-24.9 117.6-82.7 280.5-85 17-.3 52.7 1.4 52.7 1.4l-45-25.8z" fill="#e6e6e6"/></g></g><path d="M284.322 411.23c-11.24-3.536-19.221-11.163-22.068-21.089-.788-2.745-1.354-30.952-1.354-67.408 0-69.842-.125-68.874 8.911-68.874 9.331 0 9.06-1.965 9.491 68.588l.39 63.59 3.86 3.858 3.859 3.859h30.49c28.765 0 30.712-.165 34.42-2.915 2.162-1.603 4.678-5.048 5.592-7.656 1.224-3.494 1.682-30.815 1.74-103.842l.078-99.1 3.094-2.167c4.22-2.955 8.88-2.72 12.218.617 2.732 2.733 2.784 4.64 2.784 102.755 0 113.461.298 109.994-10.391 120.684-3.317 3.317-8.443 6.816-11.392 7.776-6.302 2.05-65.911 3.151-71.722 1.324zm104.748-1.36c-3.704-3.705-3.69-8.697.034-12.073 2.648-2.4 5.986-2.718 35.148-3.347 35.117-.759 39.009-1.586 42.391-9.01 1.209-2.651 1.663-20.292 1.663-64.522 0-67.995-.126-67.06 9.048-67.06 9.208 0 9.052-1.203 9.018 69.562-.029 58.826-.217 63.784-2.626 69.088-3.368 7.417-7.428 11.201-16.832 15.688-7.506 3.582-8.312 3.662-41.304 4.11-32.523.44-33.745.358-36.54-2.437zM237.932 222.967c-1.531-.87-3.244-2.263-3.807-3.094-.562-.831-1.018-15.918-1.013-33.527.011-37.95.765-40.938 12-47.542l6.74-3.961 120.943-.393c133.371-.432 130.795-.581 139.655 8.081 7.11 6.951 8.4 15.78 5.458 37.336-1.322 9.688-3.784 23.244-5.47 30.125-2.689 10.962-3.517 12.665-6.7 13.772-5.51 1.914-10.787.043-11.853-4.204-.51-2.03.81-13.227 2.992-25.382 4.736-26.392 5.116-35.287 1.656-38.751-2.343-2.345-9.326-2.51-121.235-2.86-118.603-.37-118.753-.367-122.445 2.538l-3.697 2.907v30.424c0 25.801-.332 30.755-2.188 32.61-1.203 1.204-2.717 2.188-3.366 2.188-.648 0-2.013.296-3.032.658-1.02.363-3.107-.054-4.638-.925z" id="path857" fill="#e61300" fill-opacity="1" stroke="#f1a744" stroke-width="6.431" stroke-miterlimit="4" stroke-dasharray="none" stroke-opacity="1"/></svg>